# xmcd
#
# Track frame offsets:
#	150
#	34530
#	61915
#	86380
#	117498
#	160168
#	218579
#	246415
#	282228
#
# Disc length: 4204 seconds
#
# Revision: 1
# Processed by: cddbd v1.5.2PL0 Copyright (c) Steve Scherf et al.
# Submitted via: audiograbber 1.83.01
#
DISCID=75106a09
DTITLE=Mark Knopfler - Live in Salt Lake 2005
DYEAR=2005
DGENRE=Rock
TTITLE0=Why aye man
TTITLE1=Walk of life
TTITLE2=What it is
TTITLE3=Sailing to Philadelphia
TTITLE4=Romeo and Juliet
TTITLE5=Sultans of swing
TTITLE6=Done with Bonaparte
TTITLE7=Song for Sonny Liston
TTITLE8=Rudiger
EXTD=
EXTT0=
EXTT1=
EXTT2=
EXTT3=
EXTT4=
EXTT5=
EXTT6=
EXTT7=
EXTT8=
PLAYORDER=
